<svg version="1.1" id="Layer_1" xmlns="http://www.w3.org/2000/svg" x="0" y="0" viewBox="0 0 256.1 198.6" xml:space="preserve"><style>.st1{fill:none;stroke:#43a795;stroke-width:2;stroke-linecap:round;stroke-linejoin:round}</style><path d="M.073 88.309l5.2 1s3.8-6.2 9.5-3.8c0 0 4.8-16.7 17.1-3.8 0 0 10-4.3 12.4 5.2 0 0 6.2-2.4 6.7 2.4l3.8 1m38 34.6l5.2 1s3.8-6.2 9.5-3.8c0 0 4.8-16.7 17.1-3.8 0 0 10-4.3 12.4 5.2 0 0 6.2-2.4 6.7 2.4l3.8 1m-87.8-87.4l5.2 1s3.8-6.2 9.5-3.8c0 0 4.8-16.7 17.1-3.8 0 0 10-4.3 12.4 5.2 0 0 6.2-2.4 6.7 2.4l3.8 1" fill="none" stroke="#4ab4a6" stroke-width=".819" stroke-miterlimit="10"/><path class="st1" d="M322.8 557.7c-.8-19.4-1.1-38.9-1.1-58.3 0-9.7.1-19.4.3-29.2 0-2.4.1-4.9.2-7.3.1-2.4-.2-3 2.1-4.1 4.3-2.2 8.7-4.3 13-6.5l10.1-5c2.2-1.1 4.4-2.2 6.6-3.4 2.4-1.3 4.6-2.8 6.9-4.2 7.2-4.4 14.6-8.5 22.2-12.2m1.4-.2c-1.2 33.5.6 67.1 1.3 100.7m-63 30c3.7-2.8 8.4-3.8 12.6-5.7 3.4-1.5 6.6-3.6 9.9-5.3 6.7-3.5 14-5.8 20.8-9.2 6.4-3.2 12.2-7.5 18.8-10.2m-62 30.4l18.3 3.6c.8.2 1.6.3 2.4.3.7 0 1.4-.1 2.1-.3 2.8-.6 5.5-1.3 8.1-2.4m.6-10c-1 24.7-1.6 49.5-1.7 74.2m1.5-74.2c1.2-1.5 2.9-2.5 4.8-2.7 1.9-.2 3.8-.2 5.6.2.6.1 1.2.2 1.7.4s1 .7 1.1 1.3m.3 0c-.6 25-.8 49.9-.6 74.9m.7-71c8.6-5 17.3-9.8 26.2-14.3 1.4-.8 3-1.4 4.6-1.7m-13.2-8.8c4.3 3 10 4.2 13.3 8.2m-14.5-108.4c3.4 3.4 8.6 4.4 12.4 7.3m.6.2l-.2 26.9-.1 15.8c-.2 19.5-.4 39.2 3 58.4" transform="translate(-144.938 -425.864)"/><path class="st1" d="M339.2 468.8c.1 1.5 1.3 2.5 2.4 3.5 1.5 1.4 2.8 2.9 4 4.6.9-1.1 1.5-2.4 1.8-3.8.5-2 1-3.9 1.5-5.9.1-.5.2-1.1-.2-1.4-.3-.2-.8-.3-1.2-.1-2.9.6-5.6 1.8-8 3.5m12.5-5.1c.8 2.1 2 4 3.6 5.5.5.6 1.2.9 1.9.9.8-.2 1.2-1.1 1.5-1.8.8-2.2 1.6-4.5 2.3-6.7.3-.9.5-1.9.4-2.9 0-.1-.1-.3-.2-.4-.2-.2-.6-.2-.9-.1-3.2.9-6.2 2.4-8.8 4.4m-.9 5.6c-1.2 3.9-2.2 7.9-3 11.9-.3 1.1-.4 2.3-.3 3.5.2 1.1.5 2.2 1.1 3.3 1.5 3.3 3 6.7 5.7 9.1.5-1 .8-2.2.7-3.4.1-3.1.5-6.2 1.1-9.2.4-1.1.5-2.4.3-3.5-.4-1.1-1.1-2.2-1.9-3.1-1.8-2.1-3.2-4.5-4.2-7.1m9.6 17.8l-2.6 10.4c-.1.3-.1.7 0 1 2.1-.7 4.7-.4 6.4-1.9.2-.1.3-.3.4-.5v-.6c-.6-3.1-1.7-6-3.3-8.7m-14 7.7c-1.4 3.2-2.1 6.7-2.1 10.3 1.1-.2 2.2-.4 3.3-.9 1.1-.4 2-1.2 2.5-2.2m-3.2-7.7c1.6 2.1 2.6 4.5 3 7.1m-11.5-26.7c2 2 3.9 4.1 5.7 6.4.3.3.5.6.6 1 .1.4 0 .8-.1 1.2l-3.3 15.6c-1.6-2.8-3-5.8-4.2-8.8-.3-.7-.6-1.5-.7-2.3 0-.8 0-1.6.2-2.4l1.7-9.7m25.4-12.7l-3.3 12.9c-.2.7-.3 1.5-.3 2.2.1.8.3 1.5.7 2.2 1.5 3.6 3.2 7.1 4.9 10.5.6-4.4 1.3-8.8 2.2-13.2.2-.8.3-1.7.3-2.5-.1-.6-.2-1.3-.5-1.9-1.2-3.5-2.4-6.9-3.7-10.3m-36.2 72.9c1-1.4 2.2-2.7 3.6-3.7l-1 4.5c1.3-1.3 2.4-2.6 3.4-4.2l.1.8c.3-.6 1-.9 1.6-.9h.4c.1 0 .2-.1.2-.2l1-1c1.2-.3 2.2-1.1 2.9-2.1l.3.6c.4-1.6 1.2-3 2.1-4.3.4 1.6.6 3.2.6 4.8 1.8-2.9 3.7-5.9 6.6-7.8-.6 2.2-1.4 4.4-2.3 6.5.4-1.5 1.1-2.9 2-4.2l.2.7 1.6-1.6c.2.3.2.7 0 1 .5-.4 1-.6 1.6-.7m2.7-1.5l4.6-4.3c.2.4.3.8.4 1.2.7-.7 1.5-1.2 2.3-1.6.3 1 .5 1.9.7 2.9l2.3-3.9c.2.1.3.3.3.5 1.6-2.1 3.5-4.1 5.6-5.9 0 1.9.2 3.9.6 5.8.8-1.3 1.7-2.6 2.6-3.9.9-1.4 2.1-2.6 3.6-3.3l.3 1.5c.2 0 .5-.1.7-.3" transform="translate(-144.938 -425.864)"/></svg>