<svg xmlns="http://www.w3.org/2000/svg" xmlns:xlink="http://www.w3.org/1999/xlink" width="1916" height="619" viewBox="0 0 1916 619">
  <defs>
    <clipPath id="clip-path">
      <rect id="Rectangle_4731" data-name="Rectangle 4731" width="1916" height="619" transform="translate(-1681 -5289)" fill="#fff" stroke="#707070" stroke-width="1"/>
    </clipPath>
  </defs>
  <g id="Mask_Group_1" data-name="Mask Group 1" transform="translate(1681 5289)" clip-path="url(#clip-path)">
    <path id="Exclusion_1" data-name="Exclusion 1" d="M3450,1705.306H1530V1563.169L81.523,979.544a126.923,126.923,0,0,1-58.737-48.8,144.711,144.711,0,0,1,0-155.917,133.189,133.189,0,0,1,25.771-29.138,124.544,124.544,0,0,1,32.7-19.9l1733.8-698.609a309.688,309.688,0,0,1,36.128-11.891c12.607-3.351,26.108-6.209,40.129-8.495,13.767-2.244,28.166-3.96,42.8-5.1C1948.6.572,1963.448,0,1978.232,0s29.63.572,44.125,1.7c14.629,1.138,29.026,2.854,42.792,5.1,14.021,2.286,27.521,5.144,40.128,8.495a309.839,309.839,0,0,1,36.128,11.891L3875.2,725.793a123.507,123.507,0,0,1,32.754,19.9,133.38,133.38,0,0,1,25.716,29.138,144.671,144.671,0,0,1,0,155.917,127.218,127.218,0,0,1-58.6,48.8L3450,1150.8v-64.5H1530v476.865l285.054,114.855a310.376,310.376,0,0,0,36.13,11.838c12.608,3.335,26.109,6.179,40.13,8.454,13.765,2.233,28.163,3.939,42.8,5.072,14.49,1.121,29.335,1.69,44.123,1.69s29.632-.568,44.122-1.69c14.632-1.133,29.03-2.839,42.793-5.072,14.02-2.275,27.521-5.119,40.128-8.454a310.4,310.4,0,0,0,36.13-11.838L3450,1150.8v554.5Z" transform="translate(-3214 -6375.305)" fill="#fff" stroke="rgba(0,0,0,0)" stroke-miterlimit="10" stroke-width="1"/>
  </g>
</svg>
