<svg id="WMRE_Logo_White" xmlns="http://www.w3.org/2000/svg" width="159.387" height="44.606" viewBox="0 0 159.387 44.606">
  <path id="Path_5376" data-name="Path 5376" d="M329.7,114.922h-2.4l3.333-12.055h2.414l2.755,8.586,2.754-8.586H341l3.349,12.055H341.87l-2.21-8.3-2.67,8.3h-2.432l-2.686-8.332Z" transform="translate(-275.627 -86.627)" fill="#fff"/>
  <path id="Path_5377" data-name="Path 5377" d="M446.561,100.024a1.393,1.393,0,1,1-.992.414,1.394,1.394,0,0,1,.992-.414m-1.122,4.149H447.7v8.365h-2.262Z" transform="translate(-374.888 -84.233)" fill="#fff"/>
  <path id="Path_5378" data-name="Path 5378" d="M482.278,112.113c0,.561.033,1.173.068,1.513h-2.16a5.867,5.867,0,0,1-.084-.969,2.622,2.622,0,0,1-2.347,1.173,4.4,4.4,0,0,1-.068-8.773,2.5,2.5,0,0,1,2.363,1.037v-4.778h2.228Zm-4.251-.306a2.124,2.124,0,0,0,2.057-2.4,2.073,2.073,0,0,0-2.057-2.329,2.383,2.383,0,0,0,0,4.727" transform="translate(-398.895 -85.321)" fill="#fff"/>
  <rect id="Rectangle_4727" data-name="Rectangle 4727" width="2.262" height="12.31" transform="translate(85.953 15.995)" fill="#fff"/>
  <path id="Path_5379" data-name="Path 5379" d="M574.12,128.5l2.057-.306c.476-.068.629-.306.629-.6,0-.6-.458-1.088-1.411-1.088a1.485,1.485,0,0,0-1.6,1.36l-2.006-.425a3.326,3.326,0,0,1,3.588-2.754c2.652,0,3.639,1.5,3.639,3.179v4.115a9.346,9.346,0,0,0,.1,1.326h-2.074a5.645,5.645,0,0,1-.086-1,2.8,2.8,0,0,1-2.465,1.241,2.642,2.642,0,0,1-2.873-2.517,2.578,2.578,0,0,1,2.5-2.533m2.686,1.428v-.374l-1.887.289a1.056,1.056,0,0,0-1.037,1.054.981.981,0,0,0,1.088.969,1.7,1.7,0,0,0,1.836-1.938" transform="translate(-481.378 -105.005)" fill="#fff"/>
  <path id="Path_5380" data-name="Path 5380" d="M636.227,133.488h-2.262v-8.365h2.193v1.037a2.78,2.78,0,0,1,2.415-1.258c2.074,0,3.026,1.48,3.026,3.315v5.271h-2.262v-4.88a1.47,1.47,0,0,0-1.547-1.666,1.575,1.575,0,0,0-1.565,1.734Z" transform="translate(-533.88 -105.183)" fill="#fff"/>
  <path id="Path_5381" data-name="Path 5381" d="M703.776,112.113c0,.561.034,1.173.068,1.513h-2.159a5.785,5.785,0,0,1-.085-.969,2.621,2.621,0,0,1-2.347,1.173,4.4,4.4,0,0,1-.068-8.773,2.5,2.5,0,0,1,2.363,1.037v-4.778h2.228Zm-4.251-.306a2.125,2.125,0,0,0,2.057-2.4,2.074,2.074,0,0,0-2.057-2.329,2.383,2.383,0,0,0,0,4.727" transform="translate(-585.424 -85.321)" fill="#fff"/>
  <path id="Path_5382" data-name="Path 5382" d="M764.883,130.556a1.392,1.392,0,0,0,1.531,1.276c.747,0,1.1-.391,1.1-.834,0-.373-.255-.68-.9-.816l-1.1-.254c-1.616-.357-2.347-1.326-2.347-2.5a2.917,2.917,0,0,1,3.129-2.737c2.381,0,3.179,1.513,3.281,2.414l-1.888.425a1.275,1.275,0,0,0-1.377-1.122.962.962,0,0,0-1.071.833c0,.409.306.663.765.748l1.19.255c1.649.34,2.482,1.343,2.482,2.567,0,1.36-1.054,2.755-3.248,2.755-2.516,0-3.383-1.632-3.485-2.584Z" transform="translate(-642.497 -105.006)" fill="#fff"/>
  <path id="Path_5383" data-name="Path 5383" d="M341.954,0h2.4l-3.332,12.055h-2.414L335.85,3.469,333.1,12.055h-2.448L327.3,0h2.482l2.21,8.3L334.66,0h2.431l2.687,8.332Z" transform="translate(-275.627)" fill="#fff"/>
  <path id="Path_5384" data-name="Path 5384" d="M445.838,27.98a3.766,3.766,0,0,1-3.808,2.652,4.237,4.237,0,0,1-4.319-4.471,4.2,4.2,0,0,1,4.115-4.4c2.585,0,4.131,1.649,4.131,4.335,0,.324-.033.664-.033.7h-5.986a2.038,2.038,0,0,0,2.108,1.9,1.848,1.848,0,0,0,1.9-1.276Zm-2.108-2.738a1.682,1.682,0,0,0-1.87-1.649,1.809,1.809,0,0,0-1.87,1.649Z" transform="translate(-368.609 -18.322)" fill="#fff"/>
  <path id="Path_5385" data-name="Path 5385" d="M499.613,27.622a1.391,1.391,0,0,0,1.53,1.275c.748,0,1.1-.391,1.1-.833,0-.373-.255-.68-.9-.816l-1.106-.255c-1.614-.357-2.346-1.326-2.346-2.5a2.917,2.917,0,0,1,3.129-2.737c2.38,0,3.179,1.513,3.281,2.415l-1.887.425a1.275,1.275,0,0,0-1.377-1.122.961.961,0,0,0-1.071.833c0,.408.306.663.765.748l1.191.255c1.648.339,2.482,1.343,2.482,2.567,0,1.36-1.054,2.755-3.248,2.755-2.516,0-3.383-1.632-3.485-2.585Z" transform="translate(-419.106 -18.321)" fill="#fff"/>
  <path id="Path_5386" data-name="Path 5386" d="M550.681,10.039h1.683v2.006h-1.683v3.5c0,.732.34.969.986.969a3.252,3.252,0,0,0,.7-.068v1.871a3.357,3.357,0,0,1-1.276.2,2.422,2.422,0,0,1-2.653-2.585V12.045h-1.513V10.039h.425a1.205,1.205,0,0,0,1.293-1.326V7.539h2.04Z" transform="translate(-460.579 -6.349)" fill="#fff"/>
  <path id="Path_5387" data-name="Path 5387" d="M6.892,76.5a.954.954,0,0,1-1.786,0L.191,63.377a4.087,4.087,0,0,1,0-2.47L5.106,47.784a.955.955,0,0,1,1.786,0l4.916,13.124a4.1,4.1,0,0,1,0,2.47Z" transform="translate(0 -39.722)" fill="#fff"/>
  <path id="Path_5388" data-name="Path 5388" d="M59.64,14.62a.957.957,0,0,1-1.79,0L52.935,1.5c-.022-.059-.039-.122-.058-.186a1.016,1.016,0,0,1-.033-.271A1.019,1.019,0,0,1,53.864.021h9.762A1.019,1.019,0,0,1,64.645,1.04a1.041,1.041,0,0,1-.033.271c-.018.065-.036.128-.058.186Z" transform="translate(-44.502 -0.018)" fill="#fff"/>
  <path id="Path_5389" data-name="Path 5389" d="M164.177,14.62a.957.957,0,0,1-1.791,0L157.471,1.5c-.021-.059-.039-.122-.057-.186a1.016,1.016,0,0,1-.033-.271A1.019,1.019,0,0,1,158.4.021h9.762a1.019,1.019,0,0,1,1.019,1.019,1.014,1.014,0,0,1-.033.271c-.018.065-.036.128-.057.186Z" transform="translate(-132.535 -0.018)" fill="#fff"/>
  <path id="Path_5390" data-name="Path 5390" d="M111.493,76.5a.954.954,0,0,1-1.786,0l-4.915-13.123a4.1,4.1,0,0,1,0-2.47l4.915-13.123a.955.955,0,0,1,1.786,0l4.916,13.124a4.087,4.087,0,0,1,0,2.47Z" transform="translate(-88.088 -39.722)" fill="#fff"/>
  <path id="Path_5391" data-name="Path 5391" d="M216.09,76.5a.955.955,0,0,1-1.786,0l-4.915-13.123a4.086,4.086,0,0,1,0-2.47L214.3,47.782a.955.955,0,0,1,1.786,0L221.006,60.9a4.087,4.087,0,0,1,0,2.47Z" transform="translate(-176.171 -39.719)" fill="#fff"/>
  <path id="Path_5392" data-name="Path 5392" d="M59.64,186.77a.957.957,0,0,0-1.79,0l-4.915,13.123c-.022.058-.039.121-.058.186a1.03,1.03,0,0,0,.986,1.29h9.762a1.019,1.019,0,0,0,1.019-1.019,1.037,1.037,0,0,0-.033-.271c-.018-.065-.036-.128-.058-.186Z" transform="translate(-44.502 -156.763)" fill="#fff"/>
  <path id="Path_5393" data-name="Path 5393" d="M164.177,186.77a.957.957,0,0,0-1.791,0l-4.915,13.123c-.021.058-.039.121-.057.186a1.03,1.03,0,0,0,.986,1.29h9.762a1.03,1.03,0,0,0,.986-1.29c-.018-.065-.036-.128-.057-.186Z" transform="translate(-132.535 -156.763)" fill="#fff"/>
  <path id="Path_5394" data-name="Path 5394" d="M336.542,208.643h-1.857v5.082H332.95V201.3h4.679a3.6,3.6,0,0,1,3.8,3.7,3.478,3.478,0,0,1-3.014,3.522l2.961,5.2h-2Zm.771-1.542a2.139,2.139,0,1,0,0-4.258h-2.628V207.1Z" transform="translate(-280.386 -169.521)" fill="#fff"/>
  <path id="Path_5395" data-name="Path 5395" d="M399.223,228.815l2.278-.333c.508-.07.648-.333.648-.631,0-.823-.543-1.507-1.822-1.507a1.789,1.789,0,0,0-1.91,1.7l-1.577-.368a3.25,3.25,0,0,1,3.452-2.733c2.523,0,3.5,1.437,3.5,3.084v4.223a7.916,7.916,0,0,0,.105,1.384h-1.612a6.177,6.177,0,0,1-.088-1.139,3.073,3.073,0,0,1-2.716,1.4,2.548,2.548,0,1,1-.263-5.082Zm2.926,1.209v-.386l-2.576.386a1.26,1.26,0,0,0-1.226,1.262,1.278,1.278,0,0,0,1.367,1.227A2.21,2.21,0,0,0,402.149,230.024Z" transform="translate(-334.042 -189.43)" fill="#fff"/>
  <path id="Path_5396" data-name="Path 5396" d="M456.889,198.858a1.182,1.182,0,1,1-.834.352A1.183,1.183,0,0,1,456.889,198.858Zm-.806,12.809v-8.428h1.63v8.428Z" transform="translate(-383.77 -167.464)" fill="#fff"/>
  <path id="Path_5397" data-name="Path 5397" d="M486.128,212.322V199.636h1.647v12.686Z" transform="translate(-409.382 -168.119)" fill="#fff"/>
  <path id="Path_5398" data-name="Path 5398" d="M543.181,213.724V201.3h7.552v1.594H544.9v3.82h5.292v1.612H544.9v3.8h5.835v1.595Z" transform="translate(-457.428 -169.521)" fill="#fff"/>
  <path id="Path_5399" data-name="Path 5399" d="M601.929,230.742l-3.031-4.135h2l2.068,2.961L605,226.606h1.945l-3,4.135c.508.683,2.593,3.61,3.1,4.293h-1.98l-2.173-3.1-2.138,3.1h-1.962Z" transform="translate(-504.26 -190.831)" fill="#fff"/>
  <path id="Path_5400" data-name="Path 5400" d="M663.65,231.233a3.82,3.82,0,0,1-3.785,2.663,4.492,4.492,0,0,1-.21-8.954c2.593,0,4.048,1.787,4.048,4.416a3.685,3.685,0,0,1-.035.526h-6.343a2.5,2.5,0,0,0,2.541,2.558,2.3,2.3,0,0,0,2.365-1.7Zm-1.665-2.681a2.124,2.124,0,0,0-2.313-2.155,2.267,2.267,0,0,0-2.3,2.155Z" transform="translate(-552.12 -189.43)" fill="#fff"/>
  <path id="Path_5401" data-name="Path 5401" d="M717.357,229.41a2.65,2.65,0,0,0,2.576,2.961,2.291,2.291,0,0,0,2.348-1.735l1.454.631a3.873,3.873,0,0,1-3.8,2.628,4.483,4.483,0,0,1-.018-8.954,3.666,3.666,0,0,1,3.75,2.681l-1.49.631a2.211,2.211,0,0,0-2.26-1.787C718.583,226.467,717.357,227.448,717.357,229.41Z" transform="translate(-602.689 -189.43)" fill="#fff"/>
  <path id="Path_5402" data-name="Path 5402" d="M780.99,235.3a3.117,3.117,0,0,1-3.154-3.382v-5.309h1.647v5.064c0,1.156.526,2.173,1.91,2.173a1.905,1.905,0,0,0,2-2.155v-5.082h1.647v6.869a14.193,14.193,0,0,0,.088,1.559h-1.577a7.459,7.459,0,0,1-.07-1.016A2.75,2.75,0,0,1,780.99,235.3Z" transform="translate(-655.037 -190.831)" fill="#fff"/>
  <path id="Path_5403" data-name="Path 5403" d="M837.815,212.4h1.822v1.489h-1.822v4.381c0,.771.315,1.156,1.174,1.156a3.337,3.337,0,0,0,.648-.07v1.4a3.605,3.605,0,0,1-1.121.158,2.188,2.188,0,0,1-2.348-2.4v-4.626h-1.612V212.4h.456a1.179,1.179,0,0,0,1.3-1.3v-1.367h1.507Z" transform="translate(-702.803 -176.625)" fill="#fff"/>
  <path id="Path_5404" data-name="Path 5404" d="M879.463,198.858a1.182,1.182,0,1,1-.834.352A1.183,1.183,0,0,1,879.463,198.858Zm-.806,12.809v-8.428h1.63v8.428Z" transform="translate(-739.632 -167.464)" fill="#fff"/>
  <path id="Path_5405" data-name="Path 5405" d="M906.015,235.035H904.35l-3.417-8.428h1.857l2.4,6.5,2.418-6.5h1.77Z" transform="translate(-758.701 -190.831)" fill="#fff"/>
  <path id="Path_5406" data-name="Path 5406" d="M966.455,231.233a3.82,3.82,0,0,1-3.785,2.663,4.492,4.492,0,0,1-.21-8.954c2.593,0,4.048,1.787,4.048,4.416a3.712,3.712,0,0,1-.035.526H960.13a2.5,2.5,0,0,0,2.541,2.558,2.3,2.3,0,0,0,2.365-1.7Zm-1.665-2.681a2.124,2.124,0,0,0-2.313-2.155,2.267,2.267,0,0,0-2.3,2.155Z" transform="translate(-807.121 -189.43)" fill="#fff"/>
</svg>
